FFmpeg version SVN-r25716, Copyright (c) 2000-2010 the FFmpeg developers  built on Nov 10 2010 12:23:18 with gcc 4.1.2 20080704 (Red Hat 4.1.2-48)  configuration: --enable-libmp3lame --enable-shared --disable-mmx --arch=x86_64  libavutil     50.33. 0 / 50.33. 0  libavcore      0.12. 1 /  0.12. 1  libavcodec    52.94. 4 / 52.94. 4  libavformat   52.84. 0 / 52.84. 0  libavdevice   52. 2. 2 / 52. 2. 2  libavfilter    1.59. 0 /  1.59. 0  libswscale     0.12. 0 /  0.12. 0Input #0, avi, from '/RAID10/data/converted_video_files/40670.avi':  Duration: 00:00:04.06, start: 0.000000, bitrate: 2673 kb/s    Stream #0.0: Video: mjpeg, yuvj420p, 862x564 [PAR 1:1 DAR 431:282], 15 tbr, 15 tbn, 15 tbc    Metadata:      title           : ImageJ AVI     [buffer @ 0xe605fb0] w:862 h:564 pixfmt:yuvj420p[ffsink @ 0xe606220] auto-inserting filter 'auto-inserted scaler 0' between the filter 'src' and the filter 'out'[scale @ 0xe606540] w:862 h:564 fmt:yuvj420p -> w:862 h:564 fmt:yuv420p flags:0x4Output #0, flv, to '/RAID10/data/converted_video_files/40670.flv':  Metadata:    encoder         : Lavf52.84.0    Stream #0.0: Video: flv, yuv420p, 862x564 [PAR 1:1 DAR 431:282], q=2-31, 600 kb/s, 1k tbn, 24 tbc    Metadata:      title           : ImageJ AVI     Stream mapping:  Stream #0.0 -> #0.0Press [q] to stop encodingframe=   29 fps=  0 q=10.4 size=     229kB time=1.92 bitrate= 980.1kbits/s    frame=   56 fps= 53 q=10.2 size=     339kB time=3.71 bitrate= 748.5kbits/s    frame=   61 fps= 52 q=7.6 Lsize=     367kB time=4.04 bitrate= 743.1kbits/s    video:365kB audio:0kB global headers:0kB muxing overhead 0.316899%